Coordinates
version=1
nRows=13
nColumns=40
inDegrees=yes

Units are S.I. units (second, meters, Newtons, ...)
If the header above contains a line with 'inDegrees', this indicates whether rotational values are in degrees (yes) or radians (no).

endheader
time	pelvis_tilt	pelvis_list	pelvis_rotation	pelvis_tx	pelvis_ty	pelvis_tz	hip_flexion_r	hip_adduction_r	hip_rotation_r	knee_angle_r	knee_angle_r_beta	ankle_angle_r	subtalar_angle_r	mtp_angle_r	hip_flexion_l	hip_adduction_l	hip_rotation_l	knee_angle_l	knee_angle_l_beta	ankle_angle_l	subtalar_angle_l	mtp_angle_l	lumbar_extension	lumbar_bending	lumbar_rotation	arm_flex_r	arm_add_r	arm_rot_r	elbow_flex_r	pro_sup_r	wrist_flex_r	wrist_dev_r	arm_flex_l	arm_add_l	arm_rot_l	elbow_flex_l	pro_sup_l	wrist_flex_l	wrist_dev_l
      5.57500000	      8.41615648	     -1.55179510	   -176.04711396	      0.35136216	      0.78060741	     -0.98188163	     23.27557523	    -38.10657995	    -38.80230533	     14.92551473	      0.26049937	    -20.67773317	      0.00000000	      0.00000000	     27.43539894	    -30.52402728	    -35.65432874	     12.77473292	      0.22296115	    -22.86597284	      0.00000000	      0.00000000	    -23.63868295	      0.64217627	      0.84968179	     30.55386653	    -10.49521095	     46.59580433	      1.79351665	     78.67726526	      0.00000000	      0.00000000	     22.78354427	     -2.59799312	     59.27752061	      1.01963870	      4.50714777	      0.00000000	      0.00000000
      5.58000000	      8.17377886	     -1.89662580	   -176.13323410	      0.34954964	      0.78118993	     -0.98187202	     22.82283717	    -38.30297833	    -38.81381918	     14.59106438	      0.25466211	    -20.67533067	      0.00000000	      0.00000000	     26.76060894	    -30.16257470	    -35.94931532	     12.58480025	      0.21964620	    -22.76727586	      0.00000000	      0.00000000	    -23.39682839	      0.24945963	      0.83864306	     30.18460298	    -10.50315131	     46.74172602	      1.82750452	     78.79294191	      0.00000000	      0.00000000	     22.55838248	     -2.54925947	     58.03128880	      1.03231150	      4.57131308	      0.00000000	      0.00000000
      5.58500000	      7.96047538	     -2.18505154	   -176.25881289	      0.34787600	      0.78166551	     -0.98207860	     22.39826442	    -38.39169900	    -38.84371731	     14.18598513	      0.24759215	    -20.62975036	      0.00000000	      0.00000000	     26.16682364	    -29.90960831	    -36.21898339	     12.45782786	      0.21743011	    -22.69919701	      0.00000000	      0.00000000	    -23.12637583	     -0.11838428	      0.88588974	     29.83486944	    -10.50180469	     46.85261188	      1.84741772	     79.22338918	      0.00000000	      0.00000000	     22.40176812	     -2.48930652	     56.46577743	      1.05206616	      4.59908022	      0.00000000	      0.00000000
      5.59000000	      7.65009810	     -2.49500685	   -176.35829359	      0.34602560	      0.78234017	     -0.98213297	     21.82455025	    -38.51240578	    -38.87228820	     13.76212853	      0.24019445	    -20.62868971	      0.00000000	      0.00000000	     25.45424496	    -29.60603460	    -36.51148858	     12.31561767	      0.21494808	    -22.59495273	      0.00000000	      0.00000000	    -22.95426475	     -0.46695975	      0.91811120	     29.47842529	    -10.51594765	     46.62645507	      1.89861997	     79.73276974	      0.00000000	      0.00000000	     22.22362059	     -2.45021678	     55.06064353	      1.06146219	      4.82291194	      0.00000000	      0.00000000
      5.59500000	      7.37037886	     -2.89232347	   -176.47031714	      0.34419691	      0.78300731	     -0.98213215	     21.28568161	    -38.72307856	    -38.92122848	     13.30447204	      0.23220684	    -20.72706086	      0.00000000	      0.00000000	     24.71521343	    -29.18183831	    -36.81057735	     12.09585229	      0.21111245	    -22.52635867	      0.00000000	      0.00000000	    -22.76917213	     -0.91035979	      0.81504346	     29.13866594	    -10.45484472	     47.10765434	      1.95087171	     79.14664376	      0.00000000	      0.00000000	     22.05282516	     -2.41532880	     52.98767266	      1.08329169	      4.94751910	      0.00000000	      0.00000000
      5.60000000	      7.11966569	     -3.06614175	   -176.55497813	      0.34243171	      0.78355859	     -0.98218759	     20.62869706	    -38.64319031	    -39.03391955	     12.67862965	      0.22128383	    -20.77255276	      0.00000000	      0.00000000	     24.14347192	    -28.99839936	    -36.89711739	     11.95734990	      0.20869513	    -22.42015660	      0.00000000	      0.00000000	    -22.50981616	     -1.10281487	      0.76215978	     28.78804769	    -10.46107641	     47.87010764	      2.03717446	     79.15222316	      0.00000000	      0.00000000	     21.75647083	     -2.41801342	     51.79110376	      1.11187135	      4.79600222	      0.00000000	      0.00000000
      5.60500000	      6.87514886	     -3.49892990	   -176.70255694	      0.34061034	      0.78419287	     -0.98231204	     20.12861968	    -38.85271045	    -39.03021509	     12.14767381	      0.21201690	    -20.81759698	      0.00000000	      0.00000000	     23.43699559	    -28.57568958	    -37.30179803	     11.78725126	      0.20572634	    -22.32549920	      0.00000000	      0.00000000	    -22.29520323	     -1.60955683	      0.86753893	     28.45210632	    -10.42704441	     46.63875659	      2.00591112	     80.06349129	      0.00000000	      0.00000000	     21.61287866	     -2.39759063	     50.60036460	      1.12590688	      5.01740465	      0.00000000	      0.00000000
      5.61000000	      6.63695092	     -3.93222986	   -176.84821372	      0.33887371	      0.78476238	     -0.98238033	     19.65005556	    -39.08182190	    -39.05461844	     11.63389245	      0.20304973	    -20.87053624	      0.00000000	      0.00000000	     22.77440289	    -28.14043178	    -37.60450696	     11.64665309	      0.20327244	    -22.25426575	      0.00000000	      0.00000000	    -22.04895375	     -2.09516313	      0.80961854	     28.11544565	    -10.36423188	     46.69627069	      2.05272484	     79.68828426	      0.00000000	      0.00000000	     21.34585377	     -2.47401173	     49.36812892	      1.17410201	      5.21975836	      0.00000000	      0.00000000
      5.61500000	      6.35210977	     -4.27056162	   -176.99707903	      0.33697046	      0.78543371	     -0.98255237	     19.00231581	    -39.13782613	    -39.10468278	     10.94320444	      0.19099495	    -21.00906844	      0.00000000	      0.00000000	     22.02606500	    -27.75209049	    -37.82954526	     11.34180626	      0.19795186	    -22.22095593	      0.00000000	      0.00000000	    -21.86460164	     -2.49792857	      0.81187375	     27.78191645	    -10.30063698	     45.98565091	      2.08921975	     79.94405913	      0.00000000	      0.00000000	     21.17432670	     -2.46713215	     47.83127155	      1.19261013	      5.21023883	      0.00000000	      0.00000000
      5.62000000	      6.10253104	     -4.56429476	   -177.13297424	      0.33498217	      0.78608574	     -0.98272697	     18.34365326	    -39.13997652	    -39.16385825	     10.21649302	      0.17831144	    -21.15406776	      0.00000000	      0.00000000	     21.30936336	    -27.38479384	    -38.05283066	     11.03049440	      0.19251845	    -22.17711664	      0.00000000	      0.00000000	    -21.62975515	     -2.83000023	      0.78122862	     27.45066382	    -10.21709876	     45.31048628	      2.12202992	     80.07625563	      0.00000000	      0.00000000	     20.93101120	     -2.51254406	     46.46833932	      1.21872335	      5.37691098	      0.00000000	      0.00000000
      5.62500000	      5.88108643	     -4.89100122	   -177.27084761	      0.33312961	      0.78657675	     -0.98290748	     17.75708918	    -39.20076879	    -39.20360001	      9.52898470	      0.16631216	    -21.23935681	      0.00000000	      0.00000000	     20.63131206	    -26.97131806	    -38.25649126	     10.69607707	      0.18668176	    -22.17686162	      0.00000000	      0.00000000	    -21.35265524	     -3.20342072	      0.66235313	     27.10684757	    -10.09124282	     45.25499165	      2.19073744	     79.37539519	      0.00000000	      0.00000000	     20.64174773	     -2.61472248	     45.11009888	      1.25708104	      5.50661491	      0.00000000	      0.00000000
      5.63000000	      5.55260441	     -5.00060601	   -177.41124534	      0.33126711	      0.78726154	     -0.98325426	     16.90226817	    -38.95302884	    -39.26582034	      8.65457414	      0.15105081	    -21.42843354	      0.00000000	      0.00000000	     19.89358927	    -26.80456373	    -38.40293981	     10.33758822	      0.18042495	    -22.15660274	      0.00000000	      0.00000000	    -21.20851865	     -3.35852234	      0.80042742	     26.82152437	    -10.10647958	     43.80486094	      2.21756156	     80.96378102	      0.00000000	      0.00000000	     20.40324978	     -2.66107271	     44.48892895	      1.28196012	      5.65713602	      0.00000000	      0.00000000
      5.63500000	      5.27430640	     -5.29711385	   -177.48993474	      0.32946014	      0.78785983	     -0.98334849	     16.26660510	    -39.05924521	    -39.29004623	      8.10883990	      0.14152595	    -21.56477461	      0.00000000	      0.00000000	     19.17867543	    -26.37169700	    -38.56232742	      9.92795678	      0.17327553	    -22.14644165	      0.00000000	      0.00000000	    -21.00385448	     -3.66401631	      0.68818721	     26.50194355	    -10.00858086	     43.16546014	      2.28701989	     80.92745093	      0.00000000	      0.00000000	     20.06623163	     -2.75558121	     43.99984305	      1.30339198	      5.68668715	      0.00000000	      0.00000000
